<svg width="18" height="18" viewBox="0 0 18 18" fill="none" xmlns="http://www.w3.org/2000/svg">
<g clip-path="url(#clip0_20531_1870)">
<path d="M17.4303 16.2918L16.2 12.6H14.85L15.5997 16.2H2.40026L3.14996 12.6H1.79996L0.568758 16.2918C0.256458 17.2314 0.809958 18 1.79996 18H16.2C17.19 18 17.7435 17.2314 17.4303 16.2918ZM13.5 4.5C13.5 3.30653 13.0259 2.16193 12.1819 1.31802C11.338 0.474106 10.1934 0 8.99996 0C7.80648 0 6.66189 0.474106 5.81798 1.31802C4.97406 2.16193 4.49996 3.30653 4.49996 4.5C4.49996 8.7975 8.99996 13.5 8.99996 13.5C8.99996 13.5 13.5 8.7975 13.5 4.5ZM6.56996 4.554C6.56996 3.2121 7.65716 2.1249 8.99996 2.1249C9.64431 2.1249 10.2623 2.38087 10.7179 2.8365C11.1735 3.29213 11.4295 3.91009 11.4295 4.55445C11.4295 5.19881 11.1735 5.81677 10.7179 6.2724C10.2623 6.72803 9.64431 6.984 8.99996 6.984C8.35548 6.984 7.7374 6.72798 7.28169 6.27227C6.82597 5.81656 6.56996 5.19848 6.56996 4.554Z" fill="#4E4B66"/>
</g>
<defs>
<clipPath id="clip0_20531_1870">
<rect width="18" height="18" fill="white"/>
</clipPath>
</defs>
</svg>
