<svg width="171" height="45" viewBox="0 0 171 45" fill="none" xmlns="http://www.w3.org/2000/svg">
<path d="M20.3578 43.9065H12.4362V11.6806H0.498413V3.61713H32.2678V11.6806H20.3578V43.9065ZM44.5934 5.64002C44.5934 6.35179 44.455 7.01673 44.1778 7.63482C43.9195 8.25296 43.5595 8.79614 43.0977 9.2644C42.636 9.71394 42.0914 10.0792 41.4637 10.3601C40.8541 10.6223 40.1987 10.7535 39.4968 10.7535C38.7953 10.7535 38.1305 10.6223 37.5027 10.3601C36.8934 10.0792 36.3579 9.71394 35.8962 9.2644C35.4531 8.79614 35.093 8.25296 34.816 7.63482C34.5575 7.01673 34.4282 6.35179 34.4282 5.64002C34.4282 4.947 34.5575 4.29143 34.816 3.67333C35.093 3.03648 35.4531 2.4933 35.8962 2.04375C36.3579 1.57549 36.8934 1.21027 37.5027 0.948035C38.1305 0.667086 38.7953 0.526611 39.4968 0.526611C40.1987 0.526611 40.8541 0.667086 41.4637 0.948035C42.0914 1.21027 42.636 1.57549 43.0977 2.04375C43.5595 2.4933 43.9195 3.03648 44.1778 3.67333C44.455 4.29143 44.5934 4.947 44.5934 5.64002ZM43.2917 43.9065H35.6746V13.8159H43.2917V43.9065ZM75.0056 19.8003L69.4659 25.4476C69.189 24.6609 68.8105 23.9585 68.3302 23.3404C67.8503 22.7036 67.3058 22.1697 66.6962 21.7389C66.1055 21.3081 65.4592 20.9804 64.7573 20.7556C64.0558 20.5308 63.3354 20.4184 62.5968 20.4184C61.5629 20.4184 60.5842 20.6338 59.6611 21.0646C58.7562 21.4954 57.962 22.1042 57.279 22.8908C56.6142 23.6588 56.0878 24.5766 55.7002 25.6444C55.3125 26.712 55.1186 27.8919 55.1186 29.1843C55.1186 30.233 55.3125 31.2166 55.7002 32.1346C56.0878 33.0521 56.6142 33.8577 57.279 34.5505C57.962 35.2436 58.7562 35.7868 59.6611 36.18C60.5842 36.5736 61.5629 36.77 62.5968 36.77C63.3354 36.77 64.0463 36.6672 64.7297 36.4612C65.413 36.2552 66.0499 35.9648 66.6409 35.59C67.2502 35.1968 67.7857 34.7285 68.2474 34.1853C68.7273 33.6233 69.1153 33.0053 69.4106 32.331L74.95 37.9783C74.2485 38.9899 73.4359 39.8983 72.5128 40.7034C71.6078 41.509 70.62 42.1926 69.5491 42.7546C68.4966 43.3165 67.3795 43.7381 66.1977 44.0189C65.0345 44.3185 63.8342 44.4685 62.5968 44.4685C60.5105 44.4685 58.544 44.0749 56.6974 43.2885C54.8693 42.483 53.2629 41.3874 51.878 40.0011C50.5113 38.6151 49.4313 36.9948 48.6371 35.1405C47.8434 33.2861 47.4463 31.301 47.4463 29.1843C47.4463 26.8804 47.8434 24.7264 48.6371 22.7223C49.4313 20.7181 50.5113 18.9762 51.878 17.4964C53.2629 15.998 54.8693 14.818 56.6974 13.9564C58.544 13.0948 60.5105 12.664 62.5968 12.664C63.8342 12.664 65.0436 12.8232 66.2253 13.1416C67.4256 13.46 68.5613 13.9283 69.6322 14.5464C70.7218 15.1458 71.7186 15.8856 72.6236 16.766C73.5467 17.6463 74.3408 18.6578 75.0056 19.8003ZM86.334 43.9065H78.717V1.84708H86.334V28.3695L97.6068 13.8721H106.304L96.4716 26.4028L106.304 43.9065H97.6068L91.5966 32.9773L86.334 40.0575V43.9065ZM118.214 5.64002C118.214 6.35179 118.076 7.01673 117.799 7.63482C117.54 8.25296 117.18 8.79614 116.719 9.2644C116.257 9.71394 115.712 10.0792 115.084 10.3601C114.475 10.6223 113.82 10.7535 113.118 10.7535C112.416 10.7535 111.751 10.6223 111.124 10.3601C110.514 10.0792 109.979 9.71394 109.517 9.2644C109.074 8.79614 108.714 8.25296 108.437 7.63482C108.179 7.01673 108.049 6.35179 108.049 5.64002C108.049 4.947 108.179 4.29143 108.437 3.67333C108.714 3.03648 109.074 2.4933 109.517 2.04375C109.979 1.57549 110.514 1.21027 111.124 0.948035C111.751 0.667086 112.416 0.526611 113.118 0.526611C113.82 0.526611 114.475 0.667086 115.084 0.948035C115.712 1.21027 116.257 1.57549 116.719 2.04375C117.18 2.4933 117.54 3.03648 117.799 3.67333C118.076 4.29143 118.214 4.947 118.214 5.64002ZM116.912 43.9065H109.296V13.8159H116.912V43.9065ZM137.575 43.9065C135.747 43.9065 134.03 43.5601 132.423 42.867C130.817 42.1554 129.404 41.1906 128.185 39.9731C126.985 38.7367 126.034 37.304 125.333 35.6744C124.649 34.0449 124.308 32.303 124.308 30.4486V21.5142H120.624V13.8721H124.308V1.84708H131.842V13.8721H143.308V21.5142H131.842V30.4486C131.842 31.2542 131.989 32.0126 132.285 32.7245C132.58 33.4173 132.986 34.0261 133.503 34.5505C134.021 35.0752 134.63 35.4964 135.331 35.8148C136.033 36.1148 136.781 36.2644 137.575 36.2644H143.308V43.9065H137.575ZM170.729 43.9065H145.995L158.487 21.5142H145.995V13.8721H170.729L158.238 36.2644H170.729V43.9065Z" fill="#5F2EEA"/>
</svg>
