<svg width="24" height="22" viewBox="0 0 24 22" fill="none" xmlns="http://www.w3.org/2000/svg">
<path d="M23.075 18.4733L13.815 1.43329C13.6307 1.09369 13.3581 0.810138 13.026 0.612551C12.694 0.414964 12.3147 0.310669 11.9283 0.310669C11.5419 0.310669 11.1627 0.414964 10.8306 0.612551C10.4986 0.810138 10.226 1.09369 10.0417 1.43329L0.788345 18.4733C0.605361 18.8009 0.511467 19.1708 0.516028 19.5461C0.520588 19.9213 0.623443 20.2888 0.814337 20.6119C1.00523 20.935 1.27749 21.2025 1.60397 21.3875C1.93045 21.5726 2.29974 21.6688 2.67501 21.6666H21.1883C21.5598 21.6662 21.9248 21.5695 22.2477 21.3858C22.5705 21.2021 22.8402 20.9378 23.0303 20.6187C23.2204 20.2996 23.3245 19.9366 23.3323 19.5652C23.3402 19.1939 23.2515 18.8268 23.075 18.5V18.4733ZM11.075 5.66663C11.075 5.41909 11.1733 5.18169 11.3484 5.00666C11.5234 4.83162 11.7608 4.73329 12.0083 4.73329C12.2559 4.73329 12.4933 4.83162 12.6683 5.00666C12.8433 5.18169 12.9417 5.41909 12.9417 5.66663V13.6666C12.9417 13.9142 12.8433 14.1516 12.6683 14.3266C12.4933 14.5016 12.2559 14.6 12.0083 14.6C11.7608 14.6 11.5234 14.5016 11.3484 14.3266C11.1733 14.1516 11.075 13.9142 11.075 13.6666V5.66663ZM12.0083 18.9C11.771 18.9 11.539 18.8296 11.3417 18.6977C11.1443 18.5659 10.9905 18.3785 10.8997 18.1592C10.8089 17.9399 10.7851 17.6986 10.8314 17.4659C10.8777 17.2331 10.992 17.0193 11.1598 16.8514C11.3276 16.6836 11.5415 16.5693 11.7742 16.523C12.007 16.4767 12.2483 16.5005 12.4676 16.5913C12.6868 16.6821 12.8743 16.8359 13.0061 17.0333C13.138 17.2306 13.2083 17.4626 13.2083 17.7C13.2083 17.8575 13.1773 18.0136 13.117 18.1592C13.0567 18.3048 12.9683 18.4371 12.8569 18.5485C12.7454 18.6599 12.6132 18.7483 12.4676 18.8086C12.322 18.8689 12.1659 18.9 12.0083 18.9Z" fill="#F4B740"/>
</svg>
